<mxfile host="app.diagrams.net" modified="2022-11-28T22:20:25.417Z" agent="5.0 (X11; Linux x86_64) AppleWebKit/537.36 (KHTML, like Gecko) Chrome/107.0.0.0 Safari/537.36" etag="ZIh-bJOdt7ntqZnSRTij" version="20.6.0" type="github">
  <diagram id="cpBnStqXxPPprZ2KsurN">
    <mxGraphModel dx="2350" dy="1268" grid="1" gridSize="10" guides="1" tooltips="1" connect="1" arrows="1" fold="1" page="1" pageScale="1" pageWidth="827" pageHeight="1169" math="0" shadow="0">
      <root>
        <mxCell id="0" />
        <mxCell id="1" parent="0" />
      </root>
    </mxGraphModel>
  </diagram>
</mxfile>
